<?xml version="1.0" encoding="windows-1252" standalone="no"?>
<svg xmlns="http://www.w3.org/2000/svg" xmlns:xlink="http://www.w3.org/1999/xlink" contentStyleType="text/css" height="570px" preserveAspectRatio="none" style="width:331px;height:570px;background:#FFFFFF;" version="1.1" viewBox="0 0 331 570" width="331px" zoomAndPan="magnify"><defs/><g><rect fill="#F1F1F1" height="33.9688" rx="12.5" ry="12.5" style="stroke:#181818;stroke-width:0.5;" width="126" x="90.5" y="64.9688"/><text fill="#000000" font-family="sans-serif" font-size="12" lengthAdjust="spacing" textLength="106" x="100.5" y="86.1074">Button Optimalize</text><rect fill="#F1F1F1" height="33.9688" rx="12.5" ry="12.5" style="stroke:#181818;stroke-width:0.5;" width="92" x="107.5" y="133.9375"/><text fill="#000000" font-family="sans-serif" font-size="12" lengthAdjust="spacing" textLength="72" x="117.5" y="155.0762">optimalize()</text><rect fill="#F1F1F1" height="33.9688" rx="12.5" ry="12.5" style="stroke:#181818;stroke-width:0.5;" width="147" x="80" y="11"/><text fill="#000000" font-family="sans-serif" font-size="12" lengthAdjust="spacing" textLength="127" x="90" y="32.1387">Main Thinker Window</text><polygon fill="#F1F1F1" points="122,187.9063,185,187.9063,197,199.9063,185,211.9063,122,211.9063,110,199.9063,122,187.9063" style="stroke:#181818;stroke-width:0.5;"/><text fill="#000000" font-family="sans-serif" font-size="11" lengthAdjust="spacing" textLength="15" x="157.5" y="222.1167">No</text><text fill="#000000" font-family="sans-serif" font-size="11" lengthAdjust="spacing" textLength="63" x="122" y="203.7144">Value Error</text><text fill="#000000" font-family="sans-serif" font-size="11" lengthAdjust="spacing" textLength="21" x="197" y="197.312">Yes</text><rect fill="#F1F1F1" height="33.9688" rx="12.5" ry="12.5" style="stroke:#181818;stroke-width:0.5;" width="69" x="251" y="94.4688"/><text fill="#000000" font-family="sans-serif" font-size="12" lengthAdjust="spacing" textLength="49" x="261" y="115.6074">Warning</text><rect fill="#F1F1F1" height="33.9688" rx="12.5" ry="12.5" style="stroke:#181818;stroke-width:0.5;" width="285" x="11" y="243.6167"/><text fill="#000000" font-family="sans-serif" font-size="12" lengthAdjust="spacing" textLength="265" x="21" y="264.7554">Chooses what variable to optimalize around</text><rect fill="#F1F1F1" height="33.9688" rx="12.5" ry="12.5" style="stroke:#181818;stroke-width:0.5;" width="77" x="115" y="341.5854"/><text fill="#000000" font-family="sans-serif" font-size="12" lengthAdjust="spacing" textLength="57" x="125" y="362.7241">opt_sim()</text><rect fill="#F1F1F1" height="33.9688" rx="12.5" ry="12.5" style="stroke:#181818;stroke-width:0.5;" width="223" x="42" y="395.5542"/><text fill="#000000" font-family="sans-serif" font-size="12" lengthAdjust="spacing" textLength="203" x="52" y="416.6929">Update optimalization output data</text><rect fill="#F1F1F1" height="33.9688" rx="12.5" ry="12.5" style="stroke:#181818;stroke-width:0.5;" width="43" x="132" y="449.5229"/><text fill="#000000" font-family="sans-serif" font-size="12" lengthAdjust="spacing" textLength="23" x="142" y="470.6616">i++</text><polygon fill="#F1F1F1" points="97,297.5854,210,297.5854,222,309.5854,210,321.5854,97,321.5854,85,309.5854,97,297.5854" style="stroke:#181818;stroke-width:0.5;"/><text fill="#000000" font-family="sans-serif" font-size="11" lengthAdjust="spacing" textLength="113" x="97" y="313.3936">i in range opt_it + 1</text><rect fill="#F1F1F1" height="33.9688" rx="12.5" ry="12.5" style="stroke:#181818;stroke-width:0.5;" width="95" x="106" y="525.4917"/><text fill="#000000" font-family="sans-serif" font-size="12" lengthAdjust="spacing" textLength="75" x="116" y="546.6304">plot_opt_Ic()</text><line style="stroke:#181818;stroke-width:1.0;" x1="153.5" x2="153.5" y1="98.9375" y2="133.9375"/><polygon fill="#181818" points="149.5,123.9375,153.5,133.9375,157.5,123.9375,153.5,127.9375" style="stroke:#181818;stroke-width:1.0;"/><line style="stroke:#181818;stroke-width:1.0;" x1="153.5" x2="153.5" y1="44.9688" y2="64.9688"/><polygon fill="#181818" points="149.5,54.9688,153.5,64.9688,157.5,54.9688,153.5,58.9688" style="stroke:#181818;stroke-width:1.0;"/><line style="stroke:#181818;stroke-width:1.0;" x1="197" x2="285.5" y1="199.9063" y2="199.9063"/><line style="stroke:#181818;stroke-width:1.0;" x1="285.5" x2="285.5" y1="128.4375" y2="199.9063"/><polygon fill="#181818" points="281.5,138.4375,285.5,128.4375,289.5,138.4375,285.5,134.4375" style="stroke:#181818;stroke-width:1.0;"/><line style="stroke:#181818;stroke-width:1.0;" x1="285.5" x2="285.5" y1="27.9844" y2="94.4688"/><line style="stroke:#181818;stroke-width:1.0;" x1="285.5" x2="227" y1="27.9844" y2="27.9844"/><polygon fill="#181818" points="237,23.9844,227,27.9844,237,31.9844,233,27.9844" style="stroke:#181818;stroke-width:1.0;"/><line style="stroke:#181818;stroke-width:1.0;" x1="153.5" x2="153.5" y1="167.9063" y2="187.9063"/><polygon fill="#181818" points="149.5,177.9063,153.5,187.9063,157.5,177.9063,153.5,181.9063" style="stroke:#181818;stroke-width:1.0;"/><line style="stroke:#181818;stroke-width:1.0;" x1="153.5" x2="153.5" y1="211.9063" y2="243.6167"/><polygon fill="#181818" points="149.5,233.6167,153.5,243.6167,157.5,233.6167,153.5,237.6167" style="stroke:#181818;stroke-width:1.0;"/><line style="stroke:#181818;stroke-width:1.0;" x1="153.5" x2="153.5" y1="375.5542" y2="395.5542"/><polygon fill="#181818" points="149.5,385.5542,153.5,395.5542,157.5,385.5542,153.5,389.5542" style="stroke:#181818;stroke-width:1.0;"/><line style="stroke:#181818;stroke-width:1.0;" x1="153.5" x2="153.5" y1="429.5229" y2="449.5229"/><polygon fill="#181818" points="149.5,439.5229,153.5,449.5229,157.5,439.5229,153.5,443.5229" style="stroke:#181818;stroke-width:1.0;"/><line style="stroke:#181818;stroke-width:1.0;" x1="153.5" x2="153.5" y1="321.5854" y2="341.5854"/><polygon fill="#181818" points="149.5,331.5854,153.5,341.5854,157.5,331.5854,153.5,335.5854" style="stroke:#181818;stroke-width:1.0;"/><line style="stroke:#181818;stroke-width:1.0;" x1="153.5" x2="153.5" y1="483.4917" y2="493.4917"/><line style="stroke:#181818;stroke-width:1.0;" x1="153.5" x2="277" y1="493.4917" y2="493.4917"/><polygon fill="#181818" points="273,410.5386,277,400.5386,281,410.5386,277,406.5386" style="stroke:#181818;stroke-width:1.0;"/><line style="stroke:#181818;stroke-width:1.0;" x1="277" x2="277" y1="309.5854" y2="493.4917"/><line style="stroke:#181818;stroke-width:1.0;" x1="277" x2="222" y1="309.5854" y2="309.5854"/><polygon fill="#181818" points="232,305.5854,222,309.5854,232,313.5854,228,309.5854" style="stroke:#181818;stroke-width:1.0;"/><line style="stroke:#181818;stroke-width:1.0;" x1="85" x2="30" y1="309.5854" y2="309.5854"/><polygon fill="#181818" points="26,396.5386,30,406.5386,34,396.5386,30,400.5386" style="stroke:#181818;stroke-width:1.0;"/><line style="stroke:#181818;stroke-width:1.0;" x1="30" x2="30" y1="309.5854" y2="505.4917"/><line style="stroke:#181818;stroke-width:1.0;" x1="30" x2="153.5" y1="505.4917" y2="505.4917"/><line style="stroke:#181818;stroke-width:1.0;" x1="153.5" x2="153.5" y1="505.4917" y2="525.4917"/><polygon fill="#181818" points="149.5,515.4917,153.5,525.4917,157.5,515.4917,153.5,519.4917" style="stroke:#181818;stroke-width:1.0;"/><line style="stroke:#181818;stroke-width:1.0;" x1="153.5" x2="153.5" y1="277.5854" y2="297.5854"/><polygon fill="#181818" points="149.5,287.5854,153.5,297.5854,157.5,287.5854,153.5,291.5854" style="stroke:#181818;stroke-width:1.0;"/><!--SRC=[HOynJmCn38Nt_0gF5zt4ccmW1WPW0QfE9xUnUbQlSUGuFObVJwuWEjf-x_DxIeNG8BmYP_YOEPz9OSSvoHfTU6ncak6z65zmuM_gE_aV1X_T0O_d5JL1sA5cpgVez1UvphmG35-uD89dLL4FN67OK_MGnM1u4-_2qonIgNPvzrnH6G_TPWBtFu0gBQVe_f0CFQjYFj4ccjXWX0T_IpPLlconmcT9Q7I7e74l8irAC-Wdx1eUn-WefnlMXRA8JHlZvTWHFm00]--></g></svg>