<?xml version="1.0" encoding="windows-1252" standalone="no"?>
<svg xmlns="http://www.w3.org/2000/svg" xmlns:xlink="http://www.w3.org/1999/xlink" contentStyleType="text/css" height="342px" preserveAspectRatio="none" style="width:288px;height:342px;background:#FFFFFF;" version="1.1" viewBox="0 0 288 342" width="288px" zoomAndPan="magnify"><defs/><g><rect fill="#F1F1F1" height="33.9688" rx="12.5" ry="12.5" style="stroke:#181818;stroke-width:0.5;" width="113" x="54.5" y="64.9688"/><text fill="#000000" font-family="sans-serif" font-size="12" lengthAdjust="spacing" textLength="93" x="64.5" y="86.1074">Button Simulate</text><rect fill="#F1F1F1" height="33.9688" rx="12.5" ry="12.5" style="stroke:#181818;stroke-width:0.5;" width="80" x="71" y="133.9375"/><text fill="#000000" font-family="sans-serif" font-size="12" lengthAdjust="spacing" textLength="60" x="81" y="155.0762">simulate()</text><rect fill="#F1F1F1" height="33.9688" rx="12.5" ry="12.5" style="stroke:#181818;stroke-width:0.5;" width="147" x="37.5" y="11"/><text fill="#000000" font-family="sans-serif" font-size="12" lengthAdjust="spacing" textLength="127" x="47.5" y="32.1387">Main Thinker Window</text><polygon fill="#F1F1F1" points="79.5,187.9063,142.5,187.9063,154.5,199.9063,142.5,211.9063,79.5,211.9063,67.5,199.9063,79.5,187.9063" style="stroke:#181818;stroke-width:0.5;"/><text fill="#000000" font-family="sans-serif" font-size="11" lengthAdjust="spacing" textLength="21" x="115" y="222.1167">Yes</text><text fill="#000000" font-family="sans-serif" font-size="11" lengthAdjust="spacing" textLength="63" x="79.5" y="203.7144">Value Error</text><text fill="#000000" font-family="sans-serif" font-size="11" lengthAdjust="spacing" textLength="15" x="154.5" y="197.312">No</text><rect fill="#F1F1F1" height="33.9688" rx="12.5" ry="12.5" style="stroke:#181818;stroke-width:0.5;" width="69" x="208.5" y="94.4688"/><text fill="#000000" font-family="sans-serif" font-size="12" lengthAdjust="spacing" textLength="49" x="218.5" y="115.6074">Warning</text><rect fill="#F1F1F1" height="33.9688" rx="12.5" ry="12.5" style="stroke:#181818;stroke-width:0.5;" width="200" x="11" y="243.6167"/><text fill="#000000" font-family="sans-serif" font-size="12" lengthAdjust="spacing" textLength="180" x="21" y="264.7554">Update simulation output data</text><rect fill="#F1F1F1" height="33.9688" rx="12.5" ry="12.5" style="stroke:#181818;stroke-width:0.5;" width="93" x="64.5" y="297.5854"/><text fill="#000000" font-family="sans-serif" font-size="12" lengthAdjust="spacing" textLength="73" x="74.5" y="318.7241">plot_thrust()</text><line style="stroke:#181818;stroke-width:1.0;" x1="111" x2="111" y1="98.9375" y2="133.9375"/><polygon fill="#181818" points="107,123.9375,111,133.9375,115,123.9375,111,127.9375" style="stroke:#181818;stroke-width:1.0;"/><line style="stroke:#181818;stroke-width:1.0;" x1="111" x2="111" y1="44.9688" y2="64.9688"/><polygon fill="#181818" points="107,54.9688,111,64.9688,115,54.9688,111,58.9688" style="stroke:#181818;stroke-width:1.0;"/><line style="stroke:#181818;stroke-width:1.0;" x1="154.5" x2="243" y1="199.9063" y2="199.9063"/><line style="stroke:#181818;stroke-width:1.0;" x1="243" x2="243" y1="128.4375" y2="199.9063"/><polygon fill="#181818" points="239,138.4375,243,128.4375,247,138.4375,243,134.4375" style="stroke:#181818;stroke-width:1.0;"/><line style="stroke:#181818;stroke-width:1.0;" x1="243" x2="243" y1="27.9844" y2="94.4688"/><line style="stroke:#181818;stroke-width:1.0;" x1="243" x2="184.5" y1="27.9844" y2="27.9844"/><polygon fill="#181818" points="194.5,23.9844,184.5,27.9844,194.5,31.9844,190.5,27.9844" style="stroke:#181818;stroke-width:1.0;"/><line style="stroke:#181818;stroke-width:1.0;" x1="111" x2="111" y1="167.9063" y2="187.9063"/><polygon fill="#181818" points="107,177.9063,111,187.9063,115,177.9063,111,181.9063" style="stroke:#181818;stroke-width:1.0;"/><line style="stroke:#181818;stroke-width:1.0;" x1="111" x2="111" y1="211.9063" y2="243.6167"/><polygon fill="#181818" points="107,233.6167,111,243.6167,115,233.6167,111,237.6167" style="stroke:#181818;stroke-width:1.0;"/><line style="stroke:#181818;stroke-width:1.0;" x1="111" x2="111" y1="277.5854" y2="297.5854"/><polygon fill="#181818" points="107,287.5854,111,297.5854,115,287.5854,111,291.5854" style="stroke:#181818;stroke-width:1.0;"/><!--SRC=[BOsx3i8m303tV8N7v1VI3OaH5XuL4pBKebQ34pcEylj4ejlfXZkbGcWGJyW2rvLb8uMPPSbzSl7GpBB0XRyjeT4mTKSV9lV2zzPH5uWpgh1y9gV_N5yv4VWxfaPmLCqQW2luSmuWsS0_g0ONRsKPATYRF4wvMMa6G-EObPJjQQksQkFt0m00]--></g></svg>